<svg width="100" height="96" viewBox="0 0 100 96" fill="none" xmlns="http://www.w3.org/2000/svg">
<mask id="path-1-outside-1_12_127" maskUnits="userSpaceOnUse" x="-6.40856" y="-6.43902" width="112.362" height="109.374" fill="black">
<rect fill="white" x="-6.40856" y="-6.43902" width="112.362" height="109.374"/>
<path fill-rule="evenodd" clip-rule="evenodd" d="M66.8257 28.2904L45.0392 62.4329L63.8451 55.5881L81.7223 27.5809C82.2089 26.8147 82.5234 25.9966 82.666 25.1266C82.7748 24.2689 82.682 23.4355 82.3875 22.6264C81.7459 20.8636 80.4702 19.7244 78.5603 19.2087L47.3879 9.74135L28.3792 16.6599L66.8257 28.2904ZM32.3164 67.3581L54.1029 33.2156L35.297 40.0604L17.4198 68.0676C16.9332 68.8338 16.6186 69.6518 16.4761 70.5219C16.3673 71.3796 16.4601 72.213 16.7546 73.0221C17.3962 74.7848 18.6719 75.9241 20.5818 76.4398L51.7542 85.9071L70.7629 78.9885L32.3164 67.3581Z"/>
</mask>
<path fill-rule="evenodd" clip-rule="evenodd" d="M66.8257 28.2904L45.0392 62.4329L63.8451 55.5881L81.7223 27.5809C82.2089 26.8147 82.5234 25.9966 82.666 25.1266C82.7748 24.2689 82.682 23.4355 82.3875 22.6264C81.7459 20.8636 80.4702 19.7244 78.5603 19.2087L47.3879 9.74135L28.3792 16.6599L66.8257 28.2904ZM32.3164 67.3581L54.1029 33.2156L35.297 40.0604L17.4198 68.0676C16.9332 68.8338 16.6186 69.6518 16.4761 70.5219C16.3673 71.3796 16.4601 72.213 16.7546 73.0221C17.3962 74.7848 18.6719 75.9241 20.5818 76.4398L51.7542 85.9071L70.7629 78.9885L32.3164 67.3581Z" fill="#131720"/>
<path d="M45.0392 62.4329L40.8242 59.7433L32.8913 72.1752L46.7493 67.1313L45.0392 62.4329ZM66.8257 28.2904L71.0407 30.98L74.5912 25.4158L68.2734 23.5046L66.8257 28.2904ZM63.8451 55.5881L65.5552 60.2865L67.1478 59.7069L68.0597 58.2783L63.8451 55.5881ZM81.7223 27.5809L85.9369 30.2711L85.9431 30.2613L81.7223 27.5809ZM82.666 25.1266L87.6002 25.9352L87.6149 25.8457L87.6263 25.7557L82.666 25.1266ZM78.5603 19.2087L77.1073 23.9929L77.1818 24.0156L77.2569 24.0358L78.5603 19.2087ZM47.3879 9.74135L48.8409 4.95713L47.245 4.47246L45.6778 5.04289L47.3879 9.74135ZM28.3792 16.6599L26.6691 11.9615L12.5578 17.0976L26.9315 21.4458L28.3792 16.6599ZM54.1029 33.2156L58.3179 35.9052L66.2508 23.4733L52.3928 28.5171L54.1029 33.2156ZM32.3164 67.3581L28.1014 64.6685L24.5509 70.2327L30.8687 72.1439L32.3164 67.3581ZM35.297 40.0604L33.5869 35.3619L31.9943 35.9416L31.0824 37.3702L35.297 40.0604ZM17.4198 68.0676L13.2052 65.3774L13.199 65.3871L17.4198 68.0676ZM16.4761 70.5219L11.5419 69.7133L11.5272 69.8028L11.5158 69.8928L16.4761 70.5219ZM20.5818 76.4398L22.0348 71.6555L21.9603 71.6329L21.8852 71.6126L20.5818 76.4398ZM51.7542 85.9071L50.3012 90.6913L51.897 91.176L53.4643 90.6056L51.7542 85.9071ZM70.7629 78.9885L72.473 83.687L86.5843 78.5509L72.2106 74.2027L70.7629 78.9885ZM49.2542 65.1225L71.0407 30.98L62.6107 25.6008L40.8242 59.7433L49.2542 65.1225ZM62.135 50.8896L43.3291 57.7344L46.7493 67.1313L65.5552 60.2865L62.135 50.8896ZM77.5077 24.8907L59.6305 52.8979L68.0597 58.2783L85.9369 30.2711L77.5077 24.8907ZM77.7318 24.318C77.7016 24.5026 77.6374 24.6865 77.5015 24.9004L85.9431 30.2613C86.7804 28.9429 87.3453 27.4907 87.6002 25.9352L77.7318 24.318ZM77.689 24.3365C77.7101 24.3946 77.7148 24.4258 77.7058 24.4975L87.6263 25.7557C87.8348 24.1119 87.6538 22.4764 87.0859 20.9163L77.689 24.3365ZM77.2569 24.0358C77.5778 24.1225 77.6469 24.2042 77.6191 24.1793C77.6115 24.1725 77.6093 24.1679 77.6157 24.1775C77.6232 24.1888 77.6521 24.2352 77.689 24.3365L87.0859 20.9163C85.8526 17.5277 83.2438 15.2943 79.8637 14.3816L77.2569 24.0358ZM45.9349 14.5256L77.1073 23.9929L80.0133 14.4245L48.8409 4.95713L45.9349 14.5256ZM30.0893 21.3584L49.098 14.4398L45.6778 5.04289L26.6691 11.9615L30.0893 21.3584ZM68.2734 23.5046L29.827 11.8741L26.9315 21.4458L65.3779 33.0762L68.2734 23.5046ZM49.8879 30.526L28.1014 64.6685L36.5314 70.0477L58.3179 35.9052L49.8879 30.526ZM37.0071 44.7589L55.813 37.9141L52.3928 28.5171L33.5869 35.3619L37.0071 44.7589ZM21.6343 70.7578L39.5116 42.7506L31.0824 37.3702L13.2052 65.3774L21.6343 70.7578ZM21.4103 71.3305C21.4405 71.1459 21.5047 70.9619 21.6405 70.7481L13.199 65.3871C12.3617 66.7056 11.7968 68.1578 11.5419 69.7133L21.4103 71.3305ZM21.4531 71.312C21.4319 71.2539 21.4272 71.2226 21.4363 71.151L11.5158 69.8928C11.3073 71.5365 11.4883 73.1721 12.0562 74.7322L21.4531 71.312ZM21.8852 71.6126C21.5643 71.526 21.4952 71.4443 21.523 71.4691C21.5306 71.476 21.5327 71.4806 21.5264 71.471C21.5189 71.4597 21.4899 71.4132 21.4531 71.312L12.0562 74.7322C13.2895 78.1208 15.8983 80.3542 19.2783 81.2669L21.8852 71.6126ZM53.2072 81.1229L22.0348 71.6555L19.1288 81.224L50.3012 90.6913L53.2072 81.1229ZM69.0528 74.2901L50.0441 81.2087L53.4643 90.6056L72.473 83.687L69.0528 74.2901ZM30.8687 72.1439L69.3151 83.7743L72.2106 74.2027L33.7642 62.5723L30.8687 72.1439Z" fill="currentcolor" mask="url(#path-1-outside-1_12_127)"/>
</svg>
